<?xml version="1.0" encoding="UTF-8" standalone="no"?>
<!-- Created with Inkscape (http://www.inkscape.org/) -->

<svg
   xmlns:dc="http://purl.org/dc/elements/1.1/"
   xmlns:cc="http://creativecommons.org/ns#"
   xmlns:rdf="http://www.w3.org/1999/02/22-rdf-syntax-ns#"
   xmlns:svg="http://www.w3.org/2000/svg"
   xmlns="http://www.w3.org/2000/svg"
   xmlns:sodipodi="http://sodipodi.sourceforge.net/DTD/sodipodi-0.dtd"
   xmlns:inkscape="http://www.inkscape.org/namespaces/inkscape"
   width="80mm"
   height="80mm"
   viewBox="0 0 80 80"
   version="1.1"
   id="svg8"
   inkscape:version="0.92.2 (5c3e80d, 2017-08-06)"
   sodipodi:docname="camcityccl.svg">
  <defs
     id="defs2" />
  <sodipodi:namedview
     id="base"
     pagecolor="#ffffff"
     bordercolor="#666666"
     borderopacity="1.0"
     inkscape:pageopacity="0.0"
     inkscape:pageshadow="2"
     inkscape:zoom="1.979899"
     inkscape:cx="17.739054"
     inkscape:cy="160.40135"
     inkscape:document-units="mm"
     inkscape:current-layer="layer1"
     showgrid="false"
     inkscape:window-width="1920"
     inkscape:window-height="1001"
     inkscape:window-x="-9"
     inkscape:window-y="-9"
     inkscape:window-maximized="1" />
  <metadata
     id="metadata5">
    <rdf:RDF>
      <cc:Work
         rdf:about="">
        <dc:format>image/svg+xml</dc:format>
        <dc:type
           rdf:resource="http://purl.org/dc/dcmitype/StillImage" />
        <dc:title></dc:title>
      </cc:Work>
    </rdf:RDF>
  </metadata>
  <g
     inkscape:label="Layer 1"
     inkscape:groupmode="layer"
     id="layer1"
     transform="translate(0,-217)">
    <path
       style="fill:none;stroke:#000000;stroke-width:0.26458332px;stroke-linecap:butt;stroke-linejoin:miter;stroke-opacity:1"
       d="m 42.049849,280.27455 -0.850445,-11.62277 1.133927,-3.59077 2.267858,-5.29167 -3.118303,-0.85044 -0.755954,-1.88989 1.228423,-0.66145 -1.322916,-2.26786 -3.023809,2.36235 -2.456847,0.66146 -1.133928,2.74033 -4.819197,2.83482 v 1.03943 l -1.41741,0.94495 -0.188987,1.4174 -1.039436,1.41741 -0.188987,1.98438 0.09449,3.96875 0.755952,0.66146 -0.661458,3.40178 3.023811,0.94494 0.28348,1.98438 -2.645833,5.48065 1.322917,2.36236 z"
       id="Trumpington"
       inkscape:connector-curvature="0"
       inkscape:label="#path826">
      <title
         id="title900">Trumpington</title>
    </path>
    <path
       style="fill:none;stroke:#000000;stroke-width:0.26458332px;stroke-linecap:butt;stroke-linejoin:miter;stroke-opacity:1"
       d="m 42.049849,280.27455 4.157739,-2.36235 6.614583,5.00819 3.685267,-6.04763 h 0.944941 l 0.09449,-3.21279 1.41741,-1.03944 -1.133928,-0.75595 1.322917,-1.70089 h -1.41741 l -0.188989,-1.98438 -4.441219,-0.85044 -0.566965,-1.6064 H 50.36532 l -1.511903,0.56696 V 265.25 l -2.645833,-0.66146 h -1.700893 l -2.173364,0.47247 -1.133927,3.59077 z"
       id="Queen Edith's"
       inkscape:connector-curvature="0"
       inkscape:label="#path828">
      <title
         id="title898">Queen Edith's</title>
    </path>
    <path
       style="fill:none;stroke:#000000;stroke-width:0.26458332px;stroke-linecap:butt;stroke-linejoin:miter;stroke-opacity:1"
       d="m 57.452377,276.87276 8.409976,1.79539 -0.18899,-15.02455 1.5119,-1.98438 -1.13393,-0.94493 0.66146,-2.26786 -1.13393,-0.37798 0.75596,-1.32291 -1.13393,-1.98438 -2.17336,2.55134 -1.22843,-0.94494 -1.984373,1.22842 -4.063243,-2.17336 0.944941,3.21279 3.685265,2.45685 -1.322915,2.45684 -1.417412,-1.79538 -1.795386,3.30729 -0.661458,2.83482 2.362345,0.28348 0.18899,1.98438 h 1.417409 l -1.322916,1.70089 1.133927,0.75595 -1.41741,1.03944 z"
       id="Cherry Hinton"
       inkscape:connector-curvature="0"
       inkscape:label="#path830">
      <title
         id="title896">Cherry Hinton</title>
    </path>
    <path
       style="fill:none;stroke:#000000;stroke-width:0.26458332px;stroke-linecap:butt;stroke-linejoin:miter;stroke-opacity:1"
       d="m 44.601189,259.76934 v 0 0 l 0.94494,-1.98437 3.496279,1.22842 0.566965,-0.85044 5.008184,1.13392 v -0.85044 l 2.078871,0.18898 3.685265,2.45685 -1.322917,2.45684 -1.41741,-1.79538 -1.795389,3.30729 -0.661455,2.83482 -2.078874,-0.56696 -0.566965,-1.6064 h -2.173364 l -1.511903,0.56696 V 265.25 l -4.346726,-0.66146 -2.173364,0.47247 z"
       id="Coleridge"
       inkscape:connector-curvature="0"
       inkscape:label="#path832">
      <title
         id="title906">Coleridge</title>
    </path>
    <path
       style="fill:none;stroke:#000000;stroke-width:0.26458332px;stroke-linecap:butt;stroke-linejoin:miter;stroke-opacity:1"
       d="m 35.151783,257.12351 -1.228421,-1.6064 -0.377976,-2.17336 1.228421,-0.37798 0.188989,-2.26786 -5.38616,-0.47246 v -3.49629 l -16.819939,-3.40178 -0.566965,2.26786 1.889881,0.37797 -0.188989,2.55134 1.228422,0.0945 0.283483,1.79538 h 0.755952 v 1.6064 l 3.401785,0.28348 -0.47247,1.41741 4.630209,1.98438 1.322916,1.03944 -0.283482,4.44121 2.740326,-0.18899 1.700893,1.7009 4.819195,-2.83482 z"
       id="Newnham"
       inkscape:connector-curvature="0"
       inkscape:label="#path834">
      <title
         id="title902">Newnham</title>
    </path>
    <path
       style="fill:none;stroke:#000000;stroke-width:0.26458332px;stroke-linecap:butt;stroke-linejoin:miter;stroke-opacity:1"
       d="m 10.772319,242.47693 1.984375,0.85045 16.819939,3.40178 v 3.49629 l 5.38616,0.47246 0.283483,-2.26785 -0.755955,-0.85045 1.039437,-1.6064 -1.889881,0.37798 -0.377976,-2.64583 h -1.606399 l -0.472472,-3.96875 1.228423,-3.11831 -0.09449,-1.5119 -3.874257,-1.88988 -6.992559,5.19717 -4.819197,2.74033 z"
       id="Castle"
       inkscape:connector-curvature="0"
       inkscape:label="#path836">
      <title
         id="title914">Castle</title>
    </path>
    <path
       style="fill:none;stroke:#000000;stroke-width:0.26458332px;stroke-linecap:butt;stroke-linejoin:miter;stroke-opacity:1"
       d="m 40.632439,254.0997 3.874256,-5.85863 -0.377975,-1.70089 -2.834823,0.18898 -2.456844,-2.26785 -1.889882,0.0945 -2.456849,3.02381 0.755957,0.85045 -0.472472,4.53571 -1.228421,0.37798 0.377976,2.17336 1.228421,1.6064 2.456847,-0.66146 z"
       id="Market"
       inkscape:connector-curvature="0"
       inkscape:label="#path840">
      <title
         id="title912">Market</title>
    </path>
    <path
       style="fill:none;stroke:#000000;stroke-width:0.26458332px;stroke-linecap:butt;stroke-linejoin:miter;stroke-opacity:1"
       d="m 45.546127,257.78497 3.68527,-8.31548 -4.724704,-1.22842 -3.874254,5.85863 1.322914,2.26786 -1.228421,0.66145 0.755954,1.88989 3.118303,0.85044 z"
       id="Petersfield"
       inkscape:connector-curvature="0"
       inkscape:label="#path842">
      <title
         id="title904">Petersfield</title>
    </path>
    <path
       style="fill:none;stroke:#000000;stroke-width:0.26458332px;stroke-linecap:butt;stroke-linejoin:miter;stroke-opacity:1"
       d="m 55.751487,255.42262 v 0 0 l 1.41741,-1.6064 -1.133928,-0.66146 -1.417412,0.56696 -3.307292,-5.00818 -2.078868,0.75595 -3.68527,8.31548 3.496281,1.22842 0.566965,-0.85044 5.008184,1.13392 v -0.85044 l 2.078871,0.18898 z"
       id="Romsey"
       inkscape:connector-curvature="0"
       inkscape:label="#path844">
      <title
         id="title908">Romsey</title>
    </path>
    <path
       style="fill:none;stroke:#000000;stroke-width:0.26458332px;stroke-linecap:butt;stroke-linejoin:miter;stroke-opacity:1"
       d="m 44.12872,246.54018 0.09449,-2.92932 -1.795389,-3.30729 2.929316,-2.74033 -2.173361,-2.64583 -1.13393,1.41741 -2.078871,-0.28348 -1.70089,1.41741 -2.173364,-0.85045 -1.133928,6.14211 1.984375,1.79539 1.889882,-0.0945 2.456844,2.26785 z"
       id="West Chesterton"
       inkscape:connector-curvature="0"
       inkscape:label="#path846">
      <title
         id="title910">West Chesterton</title>
    </path>
    <path
       style="fill:none;stroke:#000000;stroke-width:0.26458332px;stroke-linecap:butt;stroke-linejoin:miter;stroke-opacity:1"
       d="m 35.435265,230.3817 2.267858,-1.98438 h 1.700892 l 1.13393,-1.03943 8.315476,3.96875 0.755952,2.17336 -4.252238,4.06324 -2.173359,-2.64583 -1.13393,1.41741 -2.078871,-0.28348 -0.850442,-0.85045 0.377978,-1.13393 z"
       id="King's Hedges"
       inkscape:connector-curvature="0"
       inkscape:label="#path848">
      <title
         id="title862">King's Hedges</title>
    </path>
    <path
       style="fill:none;stroke:#000000;stroke-width:0.26458332px;stroke-linecap:butt;stroke-linejoin:miter;stroke-opacity:1"
       d="m 48.853421,231.32664 4.157737,-5.57515 5.197173,2.36235 0.944941,-1.03944 1.606401,1.7009 -1.417412,0.18899 -0.472472,2.55133 -1.41741,-0.75595 v 0.56697 l -1.700892,-0.75596 -2.645833,3.68527 2.740326,3.87426 -6.803572,2.83482 -0.566963,2.36235 -2.173364,2.74033 -2.173361,0.47247 0.09449,-2.92932 -1.795391,-3.30729 7.181554,-6.80357 z"
       id="East Chesterton"
       inkscape:connector-curvature="0"
       inkscape:label="#path850">
      <title
         id="title864">East Chesterton</title>
    </path>
    <path
       style="fill:none;stroke:#000000;stroke-width:0.26458332px;stroke-linecap:butt;stroke-linejoin:miter;stroke-opacity:1"
       d="m 65.200893,254.76116 -1.22842,-2.83482 -1.03944,-1.32292 -1.03943,1.51191 -2.740331,-0.18899 1.039431,-1.6064 0.47247,-3.68527 1.98438,-5.00818 -4.441222,-0.47247 -2.362354,-3.02381 -6.803569,2.83482 -0.566965,2.36235 -2.173362,2.74033 -2.173361,0.47247 0.377973,1.70089 4.724704,1.22842 2.078868,-0.75595 3.307292,5.00818 1.41741,-0.56696 1.13393,0.66146 -1.41741,1.6064 4.06324,2.17336 1.984376,-1.22842 1.22843,0.94494 z"
       id="Abbey"
       inkscape:connector-curvature="0"
       inkscape:label="#path854">
      <title
         id="title894">Abbey</title>
    </path>
    <path
       style="fill:none;stroke:#000000;stroke-width:0.26458332px;stroke-linecap:butt;stroke-linejoin:miter;stroke-opacity:1"
       d="m 35.529758,245.97321 -1.889879,0.37798 -0.377976,-2.64583 h -1.606399 l -0.472472,-3.96875 1.228421,-3.11831 -0.09449,-1.5119 -3.874257,-1.88988 1.70089,-2.07887 4.724704,1.79539 0.566965,-2.55134 4.063246,3.68526 -0.377981,1.13393 0.850445,0.85045 -1.70089,1.41741 -2.173364,-0.85045 -1.13393,6.14211 1.984375,1.79539 z"
       id="Arbury"
       inkscape:connector-curvature="0"
       inkscape:label="#path858">
      <title
         id="title860">Arbury</title>
    </path>
  </g>
</svg>
